PathFileType	4	(X/Y/Z)	C:/Users/beibeiliu/ov580/test_trc/User1\sequence.6_training_dense_right.trc
DataRate	CameraRate	NumFrames	NumMarkers	Units	OrigDataRate	OrigDataStartFrame	OrigNumFrames
120	120	25	19	mm	120	104	277
Frame#	Time	ThumbCMC			ThumbMCP			ThumbIP			ThumbTip			IndexMCP			IndexPIP			IndexTip			MiddleMCP			MiddlePIP			MiddleTip			RingMCP			RingPIP			RingTip			PinkyMCP			PinkyPIP			PinkyTip			BackHand1			BackHand2			BackHand3	
		X0	Y0	Z0	X1	Y1	Z1	X2	Y2	Z2	X3	Y3	Z3	X4	Y4	Z4	X5	Y5	Z5	X6	Y6	Z6	X7	Y7	Z7	X8	Y8	Z8	X9	Y9	Z9	X10	Y10	Z10	X11	Y11	Z11	X12	Y12	Z12	X13	Y13	Z13	X14	Y14	Z14	X15	Y15	Z15	X16	Y16	Z16	X17	Y17	Z17	X18	Y18	Z18	
103	0.858333	123.607	112.402	33.2415	107.4	91.8149	6.24188	100.903	82.6315	-20.1094	98.8869	67.5906	-45.1363	150.868	122.581	-48.6814	148.764	125.156	-73.8608	152.153	124.952	-98.8869	154.556	88.4152	-52.4361	125.64	66.3188	-54.8892	115.046	60.0465	-19.171	157.799	65.7606	-40.0706	133.504	46.4057	-32.6589	121.334	46.0922	-1.84608	171.185	48.0004	-22.5152	143.881	44.8504	-18.2824	130.4	65.0199	4.48201	190.605	95.2716	6.77466	191.905	100.047	44.4369	165.213	124.861	24.9477	
104	0.866667	121.855	105.608	35.1124	102.505	86.9845	4.67568	101.72	78.0865	-21.975	102.33	64.7293	-42.7592	137.992	128.697	-44.4649	138.517	130.266	-71.6246	146.22	128.255	-95.8356	147.107	95.4581	-54.4907	130.486	64.8436	-56.02	122.027	54.1935	-19.5794	161.578	70.65	-40.4302	136.273	47.7383	-33.11	130.335	44.0993	-0.221823	178.809	58.5737	-23.7155	150.475	46.9831	-18.0166	135.365	70.159	5.37638	186.167	106.222	10.4369	187.74	106.38	46.2464	158.835	124.019	27.2794	
105	0.875	117.553	102.736	33.6468	103.167	81.1411	3.89062	100.596	73.3344	-25.3671	106.921	62.4827	-48.0496	130.692	130.147	-45.7117	130.006	131.886	-68.7859	135.468	134.301	-92.4342	146.184	98.3295	-53.7663	133.908	68.0305	-58.3635	126.371	53.8335	-20.7926	159.412	76.2404	-42.5471	141.084	50.0156	-33.3781	134.818	45.3138	-4.05052	181.082	67.2757	-26.5815	153.834	53.2854	-18.4907	141.603	68.9732	4.87165	180.952	113.373	6.98375	181.736	114.851	44.4381	148.6	127.474	25.1835	
106	0.883333	112.107	98.0106	33.9425	103.215	76.7798	3.56044	103.613	70.7425	-26.8839	110.726	60.2981	-47.0363	126.843	128.448	-45.6211	125.972	131.246	-66.7529	128.747	138.146	-93.4063	146.425	98.9303	-54.9953	136.527	65.4041	-57.6308	132.45	53.7219	-17.8069	161.235	81.2878	-43.689	148.889	52.6668	-35.4383	141.291	48.1625	-4.79853	185.125	74.8185	-26.7955	161.808	53.5236	-16.3482	149.979	66.2143	8.04459	181.047	119.601	6.14574	182.301	118.339	44.3902	144.57	128.792	24.374	
107	0.891667	113.01	92.197	33.5123	110.61	72.593	0.943845	109.563	66.6493	-29.0987	116.167	56.6596	-51.8537	119.246	127.842	-44.1779	114.674	131.982	-68.6651	118.683	139.048	-95.4415	143.049	100.398	-57.0206	138.212	66.9533	-58.5093	141.439	53.7632	-22.7344	163.017	84.8415	-43.2594	157.17	51.0466	-32.9542	148.906	50.2844	-3.49818	185.69	78.0368	-29.1615	168.546	56.7979	-20.6399	153.129	70.5156	7.90145	176.785	122.53	6.35615	175.298	123.199	41.1787	140.047	127.226	26.4978	
108	0.9	116.171	88.3465	32.4111	110.713	66.998	-2.50776	110.319	58.5003	-29.8869	123.315	53.663	-52.9623	115.441	124.208	-43.479	110.414	129.028	-70.412	109.461	136.473	-94.3394	141.473	104.213	-53.1361	145.526	67.665	-60.4852	143.085	55.5805	-22.9413	164.559	84.9226	-45.0666	162.628	53.4451	-34.3311	157.027	52.0265	-0.167452	185.349	81.5529	-31.0033	172.261	60.9207	-21.3861	158.711	69.24	9.9442	173.143	124.706	7.192	169.346	125.853	41.6626	135.676	127.387	26.0146	
109	0.908333	113.401	82.7463	31.0109	114.455	61.7949	-0.0133409	116.576	54.6619	-32.292	129.469	50.2933	-54.127	109.465	118.109	-41.9885	105.364	120.814	-66.5138	103.241	131.415	-93.9516	143.926	100.157	-57.5976	143.36	66.8324	-60.4589	149.078	55.3682	-23.4548	168.362	87.3948	-44.4692	167.562	56.3801	-36.6828	160.836	52.7735	-3.08728	184.251	87.8244	-31.8649	175.865	61.4977	-19.163	161.54	70.9519	7.82939	166.696	126.081	7.04276	168.251	127.144	42.0896	132.801	121.317	26.8239	
110	0.916667	112.453	78.3077	27.202	116.872	55.0764	-2.62019	118.301	46.8309	-29.8432	132.188	43.4871	-56.6053	110.448	113.087	-43.9895	103.044	114.824	-71.0632	97.5126	121.053	-93.224	138.497	100.083	-55.5703	149.165	62.9865	-58.9666	150.891	54.5778	-21.7073	166.995	90.0887	-43.591	165.658	54.0143	-34.6154	161.952	52.2178	-5.43212	185.679	89.7986	-31.3781	176.871	64.3837	-20.5691	164.667	67.7506	10.6241	163.38	126.288	7.78526	162.806	124.415	44.2717	126.989	120.206	24.0503	
111	0.925	115.968	74.1125	27.5411	121.14	50.4827	-0.782438	123.349	41.5758	-27.9209	137.942	38.7388	-52.542	106.689	106.523	-45.9925	99.9405	107.254	-71.4143	95.0187	111.497	-95.1977	140.501	97.0728	-56.5908	148.623	63.0238	-62.4543	151.836	52.6905	-20.573	168.166	88.2415	-43.8803	169.122	55.3021	-35.1009	164.732	51.9208	-1.20424	183.473	92.8982	-28.8527	180.349	64.5676	-18.9908	166.521	65.8788	8.82247	154.134	125.04	4.16001	159.717	126.335	41.6505	122.785	115.546	27.3094	
112	0.933333	116.035	68.4223	27.7089	126.375	47.1583	-2.57464	131.786	36.91	-27.3678	147.424	33.2566	-52.0681	104.585	97.0758	-45.4046	101.033	99.7052	-72.9191	98.6666	103.209	-93.5005	138.936	89.177	-58.951	154.584	61.2257	-62.687	154.532	48.0629	-23.1087	165.945	84.5242	-44.7773	173.87	52.5476	-33.0202	169.638	50.691	1.35029	186.315	91.9143	-27.8289	185.551	62.5903	-15.6618	167.39	66.7697	11.0843	153.331	125.664	3.52153	153.949	125.23	40.8759	121.512	109.432	23.8409	
113	0.941667	117.306	61.1109	29.6224	131.906	36.309	1.34715	141.419	30.708	-29.0991	158.899	27.6229	-47.695	108.251	91.8423	-47.2235	102.699	89.0259	-70.1866	101.944	97.7823	-98.4597	145.282	90.0346	-56.3151	163.075	56.9937	-58.4433	163.717	46.9624	-25.192	168.503	83.3247	-42.4004	183.825	54.8171	-30.5306	174.784	49.8745	3.6284	188.611	90.6421	-26.7956	185.291	64.5631	-13.441	171.358	65.5551	12.8752	149.893	121.64	3.02681	149.409	121.344	43.4593	119.374	104.013	25.2154	
114	0.95	123.212	56.5662	26.4004	142.18	34.99	2.94689	154.61	29.3912	-21.8758	173.048	28.6461	-45.4963	113.175	81.9834	-50.3285	112.148	81.0256	-76.1054	112.535	86.7007	-100.565	151.837	85.1151	-58.2704	168.222	55.7049	-58.6548	170.89	45.1987	-21.682	173.273	82.09	-41.8754	189.943	54.2473	-25.8197	184.348	52.2968	3.3585	192.568	95.109	-24.645	192.994	66.8497	-9.21599	176.102	67.8115	15.4822	149.3	121.37	6.83243	143.32	121.207	38.1813	118.514	98.0537	23.7693	
115	0.958333	129.042	52.1527	29.2614	151.616	29.5021	3.73298	166.045	23.1762	-20.1945	187.034	28.3424	-39.15	124.517	77.2381	-51.9153	124.427	72.6038	-79.5482	125.386	72.8486	-106.243	158.229	79.0771	-57.5009	183.91	51.3745	-52.0188	177.78	43.4267	-13.6908	182.607	85.4395	-38.2143	196.609	55.4845	-25.1599	189.552	54.9054	7.45331	195.267	93.1202	-22.9643	197.184	68.6932	-6.94522	177.634	68.4214	15.1976	150.565	117.404	5.12552	144.562	118.449	38.9441	121.491	97.7414	18.095	
116	0.966667	135.949	53.1013	24.2664	161.299	29.1851	2.89431	177.828	20.5179	-20.5146	198	24.3711	-35.0771	134.191	71.0908	-55.1052	136.791	64.5669	-83.5177	145.709	67.1723	-108.846	167.592	72.7944	-57.9851	194.013	50.1087	-47.8207	188.758	46.1812	-10.7773	190.76	79.3219	-38.4775	206.341	56.5703	-20.7965	194.225	56.1858	8.49469	200.111	92.12	-22.7895	206.962	70.5467	-7.27614	181.639	69.7454	15.9975	152.696	114.202	-1.47393	143.161	118.115	38.2009	122.498	92.2039	17.4134	
117	0.975	141.394	51.7514	23.2258	166.846	26.5593	5.21077	185.57	24.5073	-17.4268	209.227	23.6319	-35.0328	142.112	64.0925	-60.2733	150.192	58.8826	-83.1686	162.207	58.9582	-107.726	176.586	70.7791	-56.6345	199.13	48.2629	-49.7737	193.946	45.4299	-8.37039	198.94	80.2686	-36.7585	211.386	56.6021	-17.707	194.293	56.1667	13.214	209.77	91.5977	-19.9791	212.788	70.4968	-4.32658	185.575	70.5542	18.7861	156.374	112.249	-3.08228	150.045	118.653	35.2507	129.151	89.8311	9.81613	
118	0.983333	142.867	48.2252	24.3825	172.233	28.1582	2.32648	190.735	20.2008	-15.1918	213.882	24.0595	-32.6308	150.801	61.3292	-57.7126	162.53	54.4903	-81.9177	178.987	49.5125	-104.699	181.75	69.5627	-54.1435	207.082	46.6139	-45.8443	199.942	48.2279	-5.55991	206.78	77.5433	-35.6034	217.28	55.8339	-11.2907	198.371	55.0862	13.9672	211.1	94.7566	-19.369	217.186	70.7796	2.63561	192.555	69.1991	18.8815	159.907	113.436	-2.52246	151.52	117.996	32.1717	132.128	89.7925	7.36254	
119	0.991667	147.877	46.6481	22.4421	175.354	25.1205	3.32702	193.973	21.2169	-15.7214	217.407	23.1071	-30.5453	157.735	57.4477	-57.7327	175.993	51.7634	-81.5595	194.251	44.7652	-99.3152	189.721	65.9884	-56.2283	213.061	44.7417	-42.0711	204.419	48.1905	-5.86419	205.935	76.8218	-36.056	221.287	55.118	-11.2346	203.54	54.463	11.8816	215.844	96.081	-18.7596	219.083	69.4734	0.261416	194.707	67.9309	18.9241	162.549	109.033	-2.59395	150.667	114.258	27.604	135.177	83.7209	7.48375	
120	1	148.842	43.925	23.4961	177.251	22.127	1.20628	196.953	20.1026	-17.576	219.043	21.7969	-31.6536	166.016	54.6887	-61.3038	180.259	45.7612	-80.0682	200.925	41.2338	-95.2295	191.63	62.1886	-55.8756	216.182	45.4615	-43.113	204.763	45.1642	-3.8578	208.986	76.3639	-35.7735	225.016	55.406	-14.4864	207.589	55.0979	13.5616	217.52	94.6107	-18.7705	224.288	70.2144	-2.66086	197.129	66.131	19.0716	163.969	106.359	-7.12398	150.225	112.602	30.6602	135.991	83.8755	6.81706	
121	1.00833	149.271	42.9351	23.1769	176.575	22.1288	7.45676	196.662	19.1468	-19.1535	218.649	20.3028	-32.7588	163.802	54.0311	-57.936	179.631	41.4455	-80.9983	199.652	37.3125	-98.7664	191.06	67.4176	-53.4639	215.851	43.9564	-43.4323	203.284	46.6159	-2.36899	210.634	77.8486	-35.5291	224.451	54.8406	-12.0684	204.357	52.2484	13.9717	217.842	91.7962	-19.4479	222.64	68.284	-4.38422	198.4	65.1062	19.6815	164.163	107.12	-5.63463	154.608	112.992	29.465	140.077	84.3366	7.07925	
122	1.01667	147.461	42.272	23.5951	174.691	20.7959	5.61024	192.91	18.7502	-17.7609	213.429	23.2827	-34.98	157.623	51.3133	-59.5341	170.595	42.5775	-82.5418	184.492	37.0638	-98.7201	186.452	66.0123	-53.7827	213.585	45.6908	-43.6486	202.254	43.0042	-4.0103	209.271	75.8397	-35.7703	222.268	52.5387	-13.8949	204.806	53.6052	15.3308	214.735	87.4861	-21.0348	220.889	68.1169	-5.93768	197.198	67.9633	20.6153	163.944	109.486	-5.5809	154.266	114.498	33.8701	134.216	82.0678	12.0844	
123	1.025	145.305	43.1862	27.1675	171.536	20.6953	2.75897	187.601	19.4009	-16.6444	211.175	16.9821	-36.7166	149.737	53.145	-57.8217	158.156	45.4113	-80.4222	173.404	41.76	-106.998	184.833	66.1599	-54.3676	209.343	42.759	-43.4091	200.946	40.7893	-6.44319	206.296	73.5795	-37.4142	218.615	51.0249	-15.9487	204.726	52.1966	12.6842	213.748	92.5185	-21.2624	219.08	67.1814	-1.23951	195.523	65.5861	20.3244	162.781	110.261	-2.96239	151.5	114.162	33.67	134.369	82.6182	13.252	
124	1.03333	144.423	46.2322	25.9346	166.602	24.133	5.3448	184.021	18.334	-19.2084	203.783	20.6751	-37.0862	142.971	56.5675	-58.6652	148.942	51.1564	-81.5872	156.62	47.2765	-106.116	178.944	63.051	-56.9215	204.801	45.5994	-48.6584	199.297	41.976	-7.18056	202.301	76.1133	-36.703	217.332	52.3762	-18.1811	200.661	49.2438	11.9626	213.344	89.4675	-21.0459	215.415	66.4717	-2.59791	191.821	65.1192	16.2923	160.322	107.565	-2.47121	148.909	111.225	35.2393	131.209	82.3702	13.8037	
125	1.04167	140.309	46.1432	27.8838	163.428	22.8411	3.07744	178.508	18.6185	-18.6086	197.698	18.6082	-40.4695	136.177	60.2949	-53.6218	138.604	55.1558	-78.3415	145.015	55.1346	-107.472	174.25	69.3895	-55.8507	198.221	40.9499	-49.0109	194.436	41.7759	-8.05914	194.992	74.2968	-38.8747	212.934	51.8713	-17.8842	199.101	48.4061	8.20953	203.531	90.2321	-22.0524	211.482	66.9226	-8.87918	189.132	64.4956	14.4361	157.115	112.053	-1.9374	149.809	113.371	34.6242	129.228	83.568	14.102	
126	1.05	138.88	46.8306	27.3175	159.556	24.8839	4.61123	173.342	17.9223	-20.8445	191.146	18.7142	-38.5785	129.241	61.6618	-51.9739	132.792	62.5149	-80.5292	137.065	65.5259	-105.144	170.138	70.0247	-57.86	194.484	45.6341	-50.7958	192.782	43.1762	-12.3988	193.824	77.1138	-39.6267	207.536	52.9734	-22.8996	196.998	51.6437	10.0082	201.958	92.4268	-22.5093	209.853	68.0593	-6.09634	184.183	65.5527	14.8105	151.612	109.713	-1.03434	147.861	115.784	36.6049	124.872	85.7175	14.6427	
127	1.05833	135.613	45.9071	27.3512	157.205	28.2954	1.36426	170.361	19.9578	-20.2938	187.169	19.9765	-42.3669	127.159	67.1254	-52.5735	123.891	63.5433	-79.1593	126.463	67.7873	-105.493	161.661	70.2065	-57.3439	190.126	47.7039	-51.6044	186.54	43.0079	-12.6894	185.391	76.8317	-40.7984	204.63	52.7175	-21.4455	194.213	53.0258	7.23702	201.579	90.3997	-24.6074	203.398	67.0211	-5.97945	181.298	67.09	16.5157	151.13	110.869	-0.552357	144.442	111.25	40.5045	125.912	86.16	19.646	
